<mxfile host="app.diagrams.net" agent="Mozilla/5.0 (X11; Linux x86_64; rv:138.0) Gecko/20100101 Firefox/138.0" version="27.0.6">
  <diagram name="Page-1" id="qC0ZjesDOpdV572mpzU4">
    <mxGraphModel dx="2253" dy="1935" grid="1" gridSize="10" guides="1" tooltips="1" connect="1" arrows="1" fold="1" page="1" pageScale="1" pageWidth="827" pageHeight="1169" math="0" shadow="0">
      <root>
        <mxCell id="0" />
        <mxCell id="1" parent="0" />
        <mxCell id="lmHFKcVa7eXzHL_CS6Wr-1" value="Products" style="rounded=0;whiteSpace=wrap;html=1;" parent="1" vertex="1">
          <mxGeometry x="306.62" y="100" width="120" height="60" as="geometry" />
        </mxCell>
        <mxCell id="lmHFKcVa7eXzHL_CS6Wr-2" value="Admin" style="rounded=0;whiteSpace=wrap;html=1;" parent="1" vertex="1">
          <mxGeometry x="-180" y="-312.50000000000006" width="120" height="60" as="geometry" />
        </mxCell>
        <mxCell id="lmHFKcVa7eXzHL_CS6Wr-5" value="Retailers" style="rounded=0;whiteSpace=wrap;html=1;" parent="1" vertex="1">
          <mxGeometry x="304" y="560" width="120" height="60" as="geometry" />
        </mxCell>
        <mxCell id="lmHFKcVa7eXzHL_CS6Wr-6" value="Users" style="rounded=0;whiteSpace=wrap;html=1;" parent="1" vertex="1">
          <mxGeometry x="305" y="-318.54" width="120" height="60" as="geometry" />
        </mxCell>
        <mxCell id="lmHFKcVa7eXzHL_CS6Wr-10" value="" style="shape=requiredInterface;html=1;verticalLabelPosition=bottom;sketch=0;direction=west;rotation=-45;" parent="1" vertex="1">
          <mxGeometry x="68.39" y="-198.54000000000002" height="20" as="geometry" />
        </mxCell>
        <mxCell id="lmHFKcVa7eXzHL_CS6Wr-23" value="Listings" style="rhombus;whiteSpace=wrap;html=1;" parent="1" vertex="1">
          <mxGeometry x="324" y="380" width="80" height="80" as="geometry" />
        </mxCell>
        <mxCell id="lmHFKcVa7eXzHL_CS6Wr-80" value="Name" style="ellipse;whiteSpace=wrap;html=1;" parent="1" vertex="1">
          <mxGeometry x="174.99999999999997" y="-368.5400000000001" width="90" height="50" as="geometry" />
        </mxCell>
        <mxCell id="lmHFKcVa7eXzHL_CS6Wr-81" value="" style="endArrow=none;html=1;rounded=0;entryX=1;entryY=1;entryDx=0;entryDy=0;" parent="1" source="lmHFKcVa7eXzHL_CS6Wr-6" target="lmHFKcVa7eXzHL_CS6Wr-80" edge="1">
          <mxGeometry width="50" height="50" relative="1" as="geometry">
            <mxPoint x="306.62" y="-320" as="sourcePoint" />
            <mxPoint x="356.62" y="-370" as="targetPoint" />
          </mxGeometry>
        </mxCell>
        <mxCell id="lmHFKcVa7eXzHL_CS6Wr-86" value="Password" style="ellipse;whiteSpace=wrap;html=1;" parent="1" vertex="1">
          <mxGeometry x="385" y="-450.00000000000006" width="90" height="50" as="geometry" />
        </mxCell>
        <mxCell id="lmHFKcVa7eXzHL_CS6Wr-87" value="" style="endArrow=none;html=1;rounded=0;" parent="1" source="lmHFKcVa7eXzHL_CS6Wr-6" target="lmHFKcVa7eXzHL_CS6Wr-86" edge="1">
          <mxGeometry width="50" height="50" relative="1" as="geometry">
            <mxPoint x="390" y="-350" as="sourcePoint" />
            <mxPoint x="396.62" y="-370" as="targetPoint" />
          </mxGeometry>
        </mxCell>
        <mxCell id="lmHFKcVa7eXzHL_CS6Wr-88" value="Contact_Details" style="ellipse;whiteSpace=wrap;html=1;" parent="1" vertex="1">
          <mxGeometry x="500" y="-350.00000000000006" width="90" height="50" as="geometry" />
        </mxCell>
        <mxCell id="lmHFKcVa7eXzHL_CS6Wr-89" value="" style="endArrow=none;html=1;rounded=0;entryX=0;entryY=0.5;entryDx=0;entryDy=0;exitX=1;exitY=0;exitDx=0;exitDy=0;" parent="1" source="lmHFKcVa7eXzHL_CS6Wr-6" target="lmHFKcVa7eXzHL_CS6Wr-88" edge="1">
          <mxGeometry width="50" height="50" relative="1" as="geometry">
            <mxPoint x="490" y="-330" as="sourcePoint" />
            <mxPoint x="441.62" y="-370" as="targetPoint" />
          </mxGeometry>
        </mxCell>
        <mxCell id="lmHFKcVa7eXzHL_CS6Wr-92" value="&lt;u&gt;ProductID&lt;/u&gt;" style="ellipse;whiteSpace=wrap;html=1;" parent="1" vertex="1">
          <mxGeometry x="200" y="210" width="90" height="50" as="geometry" />
        </mxCell>
        <mxCell id="lmHFKcVa7eXzHL_CS6Wr-93" value="" style="endArrow=none;html=1;rounded=0;" parent="1" source="lmHFKcVa7eXzHL_CS6Wr-92" target="lmHFKcVa7eXzHL_CS6Wr-1" edge="1">
          <mxGeometry width="50" height="50" relative="1" as="geometry">
            <mxPoint x="94.11" y="245" as="sourcePoint" />
            <mxPoint x="144.11" y="195" as="targetPoint" />
          </mxGeometry>
        </mxCell>
        <mxCell id="lmHFKcVa7eXzHL_CS6Wr-94" value="Name" style="ellipse;whiteSpace=wrap;html=1;" parent="1" vertex="1">
          <mxGeometry x="123.11000000000001" y="155" width="90" height="50" as="geometry" />
        </mxCell>
        <mxCell id="lmHFKcVa7eXzHL_CS6Wr-95" value="" style="endArrow=none;html=1;rounded=0;" parent="1" source="lmHFKcVa7eXzHL_CS6Wr-94" target="lmHFKcVa7eXzHL_CS6Wr-1" edge="1">
          <mxGeometry width="50" height="50" relative="1" as="geometry">
            <mxPoint x="90" y="250" as="sourcePoint" />
            <mxPoint x="144.11" y="195" as="targetPoint" />
          </mxGeometry>
        </mxCell>
        <mxCell id="lmHFKcVa7eXzHL_CS6Wr-107" value="" style="endArrow=none;html=1;rounded=0;" parent="1" source="lmHFKcVa7eXzHL_CS6Wr-1" target="5BIIeTrgZgYAqN390mKu-3" edge="1">
          <mxGeometry width="50" height="50" relative="1" as="geometry">
            <mxPoint x="434.11" y="295" as="sourcePoint" />
            <mxPoint x="549.11" y="345" as="targetPoint" />
          </mxGeometry>
        </mxCell>
        <mxCell id="lmHFKcVa7eXzHL_CS6Wr-110" value="Description" style="ellipse;whiteSpace=wrap;html=1;" parent="1" vertex="1">
          <mxGeometry x="153.11" y="50" width="98.38" height="50" as="geometry" />
        </mxCell>
        <mxCell id="lmHFKcVa7eXzHL_CS6Wr-112" value="" style="endArrow=none;html=1;rounded=0;" parent="1" source="lmHFKcVa7eXzHL_CS6Wr-1" target="lmHFKcVa7eXzHL_CS6Wr-110" edge="1">
          <mxGeometry width="50" height="50" relative="1" as="geometry">
            <mxPoint x="434.11" y="295" as="sourcePoint" />
            <mxPoint x="484.11" y="245" as="targetPoint" />
          </mxGeometry>
        </mxCell>
        <mxCell id="lmHFKcVa7eXzHL_CS6Wr-121" value="&lt;u&gt;RetailerID&lt;/u&gt;" style="ellipse;whiteSpace=wrap;html=1;" parent="1" vertex="1">
          <mxGeometry x="213.11" y="640" width="90" height="50" as="geometry" />
        </mxCell>
        <mxCell id="lmHFKcVa7eXzHL_CS6Wr-122" value="" style="endArrow=none;html=1;rounded=0;" parent="1" source="lmHFKcVa7eXzHL_CS6Wr-121" target="lmHFKcVa7eXzHL_CS6Wr-5" edge="1">
          <mxGeometry width="50" height="50" relative="1" as="geometry">
            <mxPoint x="75" y="420" as="sourcePoint" />
            <mxPoint x="175" y="540" as="targetPoint" />
          </mxGeometry>
        </mxCell>
        <mxCell id="lmHFKcVa7eXzHL_CS6Wr-134" value="Name" style="ellipse;whiteSpace=wrap;html=1;" parent="1" vertex="1">
          <mxGeometry x="319" y="660" width="90" height="50" as="geometry" />
        </mxCell>
        <mxCell id="lmHFKcVa7eXzHL_CS6Wr-135" value="" style="endArrow=none;html=1;rounded=0;" parent="1" source="lmHFKcVa7eXzHL_CS6Wr-134" target="lmHFKcVa7eXzHL_CS6Wr-5" edge="1">
          <mxGeometry width="50" height="50" relative="1" as="geometry">
            <mxPoint x="125" y="590" as="sourcePoint" />
            <mxPoint x="175" y="540" as="targetPoint" />
          </mxGeometry>
        </mxCell>
        <mxCell id="lmHFKcVa7eXzHL_CS6Wr-153" value="URL" style="ellipse;whiteSpace=wrap;html=1;" parent="1" vertex="1">
          <mxGeometry x="425" y="640" width="90" height="50" as="geometry" />
        </mxCell>
        <mxCell id="lmHFKcVa7eXzHL_CS6Wr-154" value="" style="endArrow=none;html=1;rounded=0;" parent="1" source="lmHFKcVa7eXzHL_CS6Wr-5" target="lmHFKcVa7eXzHL_CS6Wr-153" edge="1">
          <mxGeometry width="50" height="50" relative="1" as="geometry">
            <mxPoint x="115" y="800" as="sourcePoint" />
            <mxPoint x="165" y="750" as="targetPoint" />
          </mxGeometry>
        </mxCell>
        <mxCell id="5BIIeTrgZgYAqN390mKu-3" value="ImageURL" style="ellipse;shape=doubleEllipse;margin=3;whiteSpace=wrap;html=1;align=center;" parent="1" vertex="1">
          <mxGeometry x="400" y="220" width="100" height="50" as="geometry" />
        </mxCell>
        <mxCell id="5BIIeTrgZgYAqN390mKu-4" value="Brand" style="ellipse;whiteSpace=wrap;html=1;align=center;" parent="1" vertex="1">
          <mxGeometry x="504" y="180" width="100" height="50" as="geometry" />
        </mxCell>
        <mxCell id="5BIIeTrgZgYAqN390mKu-23" value="" style="endArrow=none;html=1;rounded=0;" parent="1" source="5BIIeTrgZgYAqN390mKu-4" target="lmHFKcVa7eXzHL_CS6Wr-1" edge="1">
          <mxGeometry relative="1" as="geometry">
            <mxPoint x="539.11" y="450" as="sourcePoint" />
            <mxPoint x="390" y="270" as="targetPoint" />
          </mxGeometry>
        </mxCell>
        <mxCell id="5BIIeTrgZgYAqN390mKu-28" value="Price" style="ellipse;whiteSpace=wrap;html=1;align=center;" parent="1" vertex="1">
          <mxGeometry x="426.62" y="400" width="100" height="40" as="geometry" />
        </mxCell>
        <mxCell id="5BIIeTrgZgYAqN390mKu-35" value="Quantity" style="ellipse;whiteSpace=wrap;html=1;align=center;" parent="1" vertex="1">
          <mxGeometry x="404" y="350" width="100" height="40" as="geometry" />
        </mxCell>
        <mxCell id="5BIIeTrgZgYAqN390mKu-51" value="Rating" style="ellipse;whiteSpace=wrap;html=1;align=center;" parent="1" vertex="1">
          <mxGeometry x="649.9999999999999" y="-205.00000000000003" width="100" height="40" as="geometry" />
        </mxCell>
        <mxCell id="5BIIeTrgZgYAqN390mKu-52" value="Comment" style="ellipse;whiteSpace=wrap;html=1;align=center;" parent="1" vertex="1">
          <mxGeometry x="709.9999999999999" y="-158.54" width="100" height="40" as="geometry" />
        </mxCell>
        <mxCell id="5BIIeTrgZgYAqN390mKu-53" value="ReviewDate" style="ellipse;whiteSpace=wrap;html=1;align=center;" parent="1" vertex="1">
          <mxGeometry x="689.9999999999999" y="-50" width="100" height="40" as="geometry" />
        </mxCell>
        <mxCell id="5BIIeTrgZgYAqN390mKu-62" value="" style="endArrow=none;html=1;rounded=0;" parent="1" source="ZwX8URytsc3kb5zPjPif-32" target="5BIIeTrgZgYAqN390mKu-51" edge="1">
          <mxGeometry relative="1" as="geometry">
            <mxPoint x="692.3361229784573" y="-91.61306148922836" as="sourcePoint" />
            <mxPoint x="994.9999999999999" y="-40" as="targetPoint" />
          </mxGeometry>
        </mxCell>
        <mxCell id="5BIIeTrgZgYAqN390mKu-63" value="" style="endArrow=none;html=1;rounded=0;" parent="1" source="ZwX8URytsc3kb5zPjPif-32" target="5BIIeTrgZgYAqN390mKu-52" edge="1">
          <mxGeometry relative="1" as="geometry">
            <mxPoint x="673.5011514428061" y="-82.19557572140297" as="sourcePoint" />
            <mxPoint x="994.9999999999999" y="-40" as="targetPoint" />
          </mxGeometry>
        </mxCell>
        <mxCell id="5BIIeTrgZgYAqN390mKu-64" value="" style="endArrow=none;html=1;rounded=0;" parent="1" source="ZwX8URytsc3kb5zPjPif-32" target="5BIIeTrgZgYAqN390mKu-53" edge="1">
          <mxGeometry relative="1" as="geometry">
            <mxPoint x="664.4548296107951" y="-77.67241480539747" as="sourcePoint" />
            <mxPoint x="994.9999999999999" y="-40" as="targetPoint" />
          </mxGeometry>
        </mxCell>
        <mxCell id="5BIIeTrgZgYAqN390mKu-66" value="M" style="endArrow=none;html=1;rounded=0;" parent="1" source="lmHFKcVa7eXzHL_CS6Wr-6" target="ZwX8URytsc3kb5zPjPif-32" edge="1">
          <mxGeometry x="0.7958" y="15" relative="1" as="geometry">
            <mxPoint x="970" y="130" as="sourcePoint" />
            <mxPoint x="614.235758102815" y="-112.56287905140721" as="targetPoint" />
            <mxPoint as="offset" />
          </mxGeometry>
        </mxCell>
        <mxCell id="5BIIeTrgZgYAqN390mKu-68" value="" style="endArrow=none;html=1;rounded=0;" parent="1" source="lmHFKcVa7eXzHL_CS6Wr-1" target="ZwX8URytsc3kb5zPjPif-32" edge="1">
          <mxGeometry relative="1" as="geometry">
            <mxPoint x="970" y="130" as="sourcePoint" />
            <mxPoint x="616.4807594568783" y="-76.31462027156067" as="targetPoint" />
          </mxGeometry>
        </mxCell>
        <mxCell id="5BIIeTrgZgYAqN390mKu-69" value="N" style="resizable=0;html=1;whiteSpace=wrap;align=right;verticalAlign=bottom;" parent="5BIIeTrgZgYAqN390mKu-68" connectable="0" vertex="1">
          <mxGeometry x="1" relative="1" as="geometry">
            <mxPoint x="-6" y="36" as="offset" />
          </mxGeometry>
        </mxCell>
        <mxCell id="5BIIeTrgZgYAqN390mKu-71" value="" style="endArrow=none;html=1;rounded=0;" parent="1" source="ZwX8URytsc3kb5zPjPif-64" target="lmHFKcVa7eXzHL_CS6Wr-6" edge="1">
          <mxGeometry relative="1" as="geometry">
            <mxPoint x="296.4899999999998" y="-373.53999999999996" as="sourcePoint" />
            <mxPoint x="290" y="-190" as="targetPoint" />
          </mxGeometry>
        </mxCell>
        <mxCell id="5BIIeTrgZgYAqN390mKu-72" value="Preferences" style="shape=ext;margin=3;double=1;whiteSpace=wrap;html=1;align=center;" parent="1" vertex="1">
          <mxGeometry x="314" y="-680" width="100" height="40" as="geometry" />
        </mxCell>
        <mxCell id="5BIIeTrgZgYAqN390mKu-73" value="1" style="endArrow=none;html=1;rounded=0;exitX=0.5;exitY=0;exitDx=0;exitDy=0;entryX=0.5;entryY=1;entryDx=0;entryDy=0;" parent="1" source="lmHFKcVa7eXzHL_CS6Wr-6" target="5BIIeTrgZgYAqN390mKu-75" edge="1">
          <mxGeometry x="0.7796" y="15" relative="1" as="geometry">
            <mxPoint x="400" y="-400" as="sourcePoint" />
            <mxPoint x="380" y="-480" as="targetPoint" />
            <mxPoint as="offset" />
          </mxGeometry>
        </mxCell>
        <mxCell id="5BIIeTrgZgYAqN390mKu-74" value="1" style="resizable=0;html=1;whiteSpace=wrap;align=right;verticalAlign=bottom;" parent="5BIIeTrgZgYAqN390mKu-73" connectable="0" vertex="1">
          <mxGeometry x="1" relative="1" as="geometry" />
        </mxCell>
        <mxCell id="5BIIeTrgZgYAqN390mKu-75" value="setPref" style="shape=rhombus;double=1;perimeter=rhombusPerimeter;whiteSpace=wrap;html=1;align=center;" parent="1" vertex="1">
          <mxGeometry x="305" y="-560" width="120" height="60" as="geometry" />
        </mxCell>
        <mxCell id="5BIIeTrgZgYAqN390mKu-78" value="" style="shape=link;html=1;rounded=0;exitX=0.5;exitY=1;exitDx=0;exitDy=0;entryX=0.5;entryY=0;entryDx=0;entryDy=0;" parent="1" source="5BIIeTrgZgYAqN390mKu-72" target="5BIIeTrgZgYAqN390mKu-75" edge="1">
          <mxGeometry relative="1" as="geometry">
            <mxPoint x="400" y="-500" as="sourcePoint" />
            <mxPoint x="560" y="-500" as="targetPoint" />
          </mxGeometry>
        </mxCell>
        <mxCell id="5BIIeTrgZgYAqN390mKu-79" value="1" style="resizable=0;html=1;whiteSpace=wrap;align=right;verticalAlign=bottom;" parent="5BIIeTrgZgYAqN390mKu-78" connectable="0" vertex="1">
          <mxGeometry x="1" relative="1" as="geometry">
            <mxPoint x="-10" as="offset" />
          </mxGeometry>
        </mxCell>
        <mxCell id="5BIIeTrgZgYAqN390mKu-84" value="Theme" style="ellipse;whiteSpace=wrap;html=1;align=center;" parent="1" vertex="1">
          <mxGeometry x="190" y="-680" width="100" height="40" as="geometry" />
        </mxCell>
        <mxCell id="5BIIeTrgZgYAqN390mKu-85" value="Pref3" style="ellipse;whiteSpace=wrap;html=1;align=center;" parent="1" vertex="1">
          <mxGeometry x="440" y="-680" width="100" height="40" as="geometry" />
        </mxCell>
        <mxCell id="5BIIeTrgZgYAqN390mKu-86" value="Sort" style="ellipse;whiteSpace=wrap;html=1;align=center;" parent="1" vertex="1">
          <mxGeometry x="314" y="-740" width="100" height="40" as="geometry" />
        </mxCell>
        <mxCell id="5BIIeTrgZgYAqN390mKu-116" value="" style="endArrow=none;html=1;rounded=0;" parent="1" source="5BIIeTrgZgYAqN390mKu-72" target="5BIIeTrgZgYAqN390mKu-85" edge="1">
          <mxGeometry relative="1" as="geometry">
            <mxPoint x="460" y="-680" as="sourcePoint" />
            <mxPoint x="620" y="-680" as="targetPoint" />
          </mxGeometry>
        </mxCell>
        <mxCell id="5BIIeTrgZgYAqN390mKu-117" value="" style="endArrow=none;html=1;rounded=0;" parent="1" source="5BIIeTrgZgYAqN390mKu-72" target="5BIIeTrgZgYAqN390mKu-86" edge="1">
          <mxGeometry relative="1" as="geometry">
            <mxPoint x="430" y="-700" as="sourcePoint" />
            <mxPoint x="620" y="-680" as="targetPoint" />
          </mxGeometry>
        </mxCell>
        <mxCell id="5BIIeTrgZgYAqN390mKu-118" value="" style="endArrow=none;html=1;rounded=0;" parent="1" source="5BIIeTrgZgYAqN390mKu-72" target="5BIIeTrgZgYAqN390mKu-84" edge="1">
          <mxGeometry relative="1" as="geometry">
            <mxPoint x="460" y="-680" as="sourcePoint" />
            <mxPoint x="620" y="-680" as="targetPoint" />
          </mxGeometry>
        </mxCell>
        <mxCell id="5BIIeTrgZgYAqN390mKu-127" value="Quantity" style="ellipse;whiteSpace=wrap;html=1;align=center;" parent="1" vertex="1">
          <mxGeometry x="380" y="-165" width="100" height="40" as="geometry" />
        </mxCell>
        <mxCell id="5BIIeTrgZgYAqN390mKu-130" value="" style="endArrow=none;html=1;rounded=0;" parent="1" source="ZwX8URytsc3kb5zPjPif-14" target="5BIIeTrgZgYAqN390mKu-127" edge="1">
          <mxGeometry relative="1" as="geometry">
            <mxPoint x="505" y="35" as="sourcePoint" />
            <mxPoint x="630" y="-130" as="targetPoint" />
          </mxGeometry>
        </mxCell>
        <mxCell id="ZwX8URytsc3kb5zPjPif-7" value="Privilege" style="ellipse;whiteSpace=wrap;html=1;" parent="1" vertex="1">
          <mxGeometry x="-165.00000000000003" y="-397.50000000000006" width="90" height="50" as="geometry" />
        </mxCell>
        <mxCell id="ZwX8URytsc3kb5zPjPif-8" value="" style="endArrow=none;html=1;rounded=0;" parent="1" source="lmHFKcVa7eXzHL_CS6Wr-2" target="ZwX8URytsc3kb5zPjPif-7" edge="1">
          <mxGeometry width="50" height="50" relative="1" as="geometry">
            <mxPoint x="10" y="-327.5" as="sourcePoint" />
            <mxPoint x="60" y="-377.5" as="targetPoint" />
          </mxGeometry>
        </mxCell>
        <mxCell id="ZwX8URytsc3kb5zPjPif-9" value="Salt" style="ellipse;whiteSpace=wrap;html=1;" parent="1" vertex="1">
          <mxGeometry x="475" y="-421.77000000000004" width="90" height="50" as="geometry" />
        </mxCell>
        <mxCell id="ZwX8URytsc3kb5zPjPif-10" value="" style="endArrow=none;html=1;rounded=0;" parent="1" source="lmHFKcVa7eXzHL_CS6Wr-6" target="ZwX8URytsc3kb5zPjPif-9" edge="1">
          <mxGeometry relative="1" as="geometry">
            <mxPoint x="60" y="-350" as="sourcePoint" />
            <mxPoint x="220" y="-350" as="targetPoint" />
          </mxGeometry>
        </mxCell>
        <mxCell id="ZwX8URytsc3kb5zPjPif-13" value="Wishlist" style="shape=rhombus;perimeter=rhombusPerimeter;whiteSpace=wrap;html=1;align=center;" parent="1" vertex="1">
          <mxGeometry x="70" y="-125" width="120" height="60" as="geometry" />
        </mxCell>
        <mxCell id="ZwX8URytsc3kb5zPjPif-14" value="Cart" style="shape=rhombus;perimeter=rhombusPerimeter;whiteSpace=wrap;html=1;align=center;" parent="1" vertex="1">
          <mxGeometry x="306.62" y="-125" width="120" height="60" as="geometry" />
        </mxCell>
        <mxCell id="ZwX8URytsc3kb5zPjPif-16" value="M" style="endArrow=none;html=1;rounded=0;" parent="1" source="ZwX8URytsc3kb5zPjPif-13" target="lmHFKcVa7eXzHL_CS6Wr-6" edge="1">
          <mxGeometry x="-0.6577" y="-11" width="50" height="50" relative="1" as="geometry">
            <mxPoint x="60" y="-279" as="sourcePoint" />
            <mxPoint x="315" y="-279" as="targetPoint" />
            <mxPoint as="offset" />
          </mxGeometry>
        </mxCell>
        <mxCell id="ZwX8URytsc3kb5zPjPif-17" value="M" style="endArrow=none;html=1;rounded=0;" parent="1" source="ZwX8URytsc3kb5zPjPif-14" target="lmHFKcVa7eXzHL_CS6Wr-6" edge="1">
          <mxGeometry x="-0.7717" y="16" width="50" height="50" relative="1" as="geometry">
            <mxPoint x="70" y="-269" as="sourcePoint" />
            <mxPoint x="325" y="-269" as="targetPoint" />
            <mxPoint as="offset" />
          </mxGeometry>
        </mxCell>
        <mxCell id="ZwX8URytsc3kb5zPjPif-18" value="N" style="endArrow=none;html=1;rounded=0;" parent="1" source="lmHFKcVa7eXzHL_CS6Wr-1" target="ZwX8URytsc3kb5zPjPif-13" edge="1">
          <mxGeometry x="0.7499" y="-9" width="50" height="50" relative="1" as="geometry">
            <mxPoint x="316" y="286" as="sourcePoint" />
            <mxPoint x="201" y="248" as="targetPoint" />
            <mxPoint as="offset" />
          </mxGeometry>
        </mxCell>
        <mxCell id="ZwX8URytsc3kb5zPjPif-19" value="N" style="endArrow=none;html=1;rounded=0;" parent="1" source="lmHFKcVa7eXzHL_CS6Wr-1" target="ZwX8URytsc3kb5zPjPif-14" edge="1">
          <mxGeometry x="0.8182" y="17" width="50" height="50" relative="1" as="geometry">
            <mxPoint x="365" y="275" as="sourcePoint" />
            <mxPoint x="239" y="-65" as="targetPoint" />
            <mxPoint as="offset" />
          </mxGeometry>
        </mxCell>
        <mxCell id="ZwX8URytsc3kb5zPjPif-22" value="" style="endArrow=none;html=1;rounded=0;" parent="1" source="ZwX8URytsc3kb5zPjPif-50" target="lmHFKcVa7eXzHL_CS6Wr-1" edge="1">
          <mxGeometry width="50" height="50" relative="1" as="geometry">
            <mxPoint x="540" y="130" as="sourcePoint" />
            <mxPoint x="303" y="271" as="targetPoint" />
          </mxGeometry>
        </mxCell>
        <mxCell id="ZwX8URytsc3kb5zPjPif-27" value="" style="endArrow=none;html=1;rounded=0;" parent="1" source="lmHFKcVa7eXzHL_CS6Wr-23" target="5BIIeTrgZgYAqN390mKu-35" edge="1">
          <mxGeometry width="50" height="50" relative="1" as="geometry">
            <mxPoint x="135" y="470" as="sourcePoint" />
            <mxPoint x="165" y="510" as="targetPoint" />
          </mxGeometry>
        </mxCell>
        <mxCell id="ZwX8URytsc3kb5zPjPif-28" value="" style="endArrow=none;html=1;rounded=0;" parent="1" source="lmHFKcVa7eXzHL_CS6Wr-23" target="5BIIeTrgZgYAqN390mKu-28" edge="1">
          <mxGeometry width="50" height="50" relative="1" as="geometry">
            <mxPoint x="406" y="422" as="sourcePoint" />
            <mxPoint x="448" y="411" as="targetPoint" />
          </mxGeometry>
        </mxCell>
        <mxCell id="ZwX8URytsc3kb5zPjPif-32" value="ProductRating" style="shape=rhombus;perimeter=rhombusPerimeter;whiteSpace=wrap;html=1;align=center;" parent="1" vertex="1">
          <mxGeometry x="565" y="-125" width="120" height="60" as="geometry" />
        </mxCell>
        <mxCell id="ZwX8URytsc3kb5zPjPif-43" value="" style="endArrow=none;html=1;rounded=0;" parent="1" source="lmHFKcVa7eXzHL_CS6Wr-2" target="ZwX8URytsc3kb5zPjPif-42" edge="1">
          <mxGeometry width="50" height="50" relative="1" as="geometry">
            <mxPoint x="50" y="-289" as="sourcePoint" />
            <mxPoint x="305" y="-289" as="targetPoint" />
          </mxGeometry>
        </mxCell>
        <mxCell id="ZwX8URytsc3kb5zPjPif-42" value="U" style="text;html=1;align=center;verticalAlign=middle;whiteSpace=wrap;rounded=0;rotation=90;fontSize=24;" parent="1" vertex="1">
          <mxGeometry x="68.39000000000001" y="-297.5" width="60" height="30" as="geometry" />
        </mxCell>
        <mxCell id="ZwX8URytsc3kb5zPjPif-50" value="Category" style="ellipse;whiteSpace=wrap;html=1;align=center;" parent="1" vertex="1">
          <mxGeometry x="540" y="105" width="100" height="50" as="geometry" />
        </mxCell>
        <mxCell id="ZwX8URytsc3kb5zPjPif-51" value="" style="shape=link;html=1;rounded=0;" parent="1" source="lmHFKcVa7eXzHL_CS6Wr-5" target="lmHFKcVa7eXzHL_CS6Wr-23" edge="1">
          <mxGeometry relative="1" as="geometry">
            <mxPoint x="120" y="380" as="sourcePoint" />
            <mxPoint x="280" y="380" as="targetPoint" />
          </mxGeometry>
        </mxCell>
        <mxCell id="ZwX8URytsc3kb5zPjPif-52" value="N" style="resizable=0;html=1;whiteSpace=wrap;align=right;verticalAlign=bottom;" parent="ZwX8URytsc3kb5zPjPif-51" connectable="0" vertex="1">
          <mxGeometry x="1" relative="1" as="geometry">
            <mxPoint x="-9" y="20" as="offset" />
          </mxGeometry>
        </mxCell>
        <mxCell id="ZwX8URytsc3kb5zPjPif-53" value="" style="shape=link;html=1;rounded=0;" parent="1" source="lmHFKcVa7eXzHL_CS6Wr-1" target="lmHFKcVa7eXzHL_CS6Wr-23" edge="1">
          <mxGeometry relative="1" as="geometry">
            <mxPoint x="120" y="380" as="sourcePoint" />
            <mxPoint x="280" y="380" as="targetPoint" />
          </mxGeometry>
        </mxCell>
        <mxCell id="ZwX8URytsc3kb5zPjPif-54" value="M" style="resizable=0;html=1;whiteSpace=wrap;align=right;verticalAlign=bottom;" parent="ZwX8URytsc3kb5zPjPif-53" connectable="0" vertex="1">
          <mxGeometry x="1" relative="1" as="geometry">
            <mxPoint x="-9" y="-10" as="offset" />
          </mxGeometry>
        </mxCell>
        <mxCell id="ZwX8URytsc3kb5zPjPif-56" value="" style="endArrow=none;html=1;rounded=0;" parent="1" source="lmHFKcVa7eXzHL_CS6Wr-23" target="ZwX8URytsc3kb5zPjPif-57" edge="1">
          <mxGeometry width="50" height="50" relative="1" as="geometry">
            <mxPoint x="410" y="434" as="sourcePoint" />
            <mxPoint x="425.13079437777424" y="462.6493914263542" as="targetPoint" />
          </mxGeometry>
        </mxCell>
        <mxCell id="ZwX8URytsc3kb5zPjPif-57" value="Left" style="ellipse;whiteSpace=wrap;html=1;align=center;dashed=1;" parent="1" vertex="1">
          <mxGeometry x="400" y="460" width="100" height="40" as="geometry" />
        </mxCell>
        <mxCell id="ZwX8URytsc3kb5zPjPif-60" value="" style="endArrow=none;html=1;rounded=0;" parent="1" source="lmHFKcVa7eXzHL_CS6Wr-88" target="zN3Sk1eQ0CRhaxmOy-_6-2" edge="1">
          <mxGeometry width="50" height="50" relative="1" as="geometry">
            <mxPoint x="435" y="-309" as="sourcePoint" />
            <mxPoint x="617.3484317397538" y="-351.30852063263774" as="targetPoint" />
          </mxGeometry>
        </mxCell>
        <mxCell id="ZwX8URytsc3kb5zPjPif-61" value="" style="endArrow=none;html=1;rounded=0;" parent="1" source="lmHFKcVa7eXzHL_CS6Wr-88" target="zN3Sk1eQ0CRhaxmOy-_6-1" edge="1">
          <mxGeometry width="50" height="50" relative="1" as="geometry">
            <mxPoint x="590" y="-331" as="sourcePoint" />
            <mxPoint x="614.0897354991093" y="-307.18352187295386" as="targetPoint" />
          </mxGeometry>
        </mxCell>
        <mxCell id="ZwX8URytsc3kb5zPjPif-64" value="API_Key" style="ellipse;whiteSpace=wrap;html=1;align=center;fontStyle=4;" parent="1" vertex="1">
          <mxGeometry x="240" y="-411.77" width="100" height="40" as="geometry" />
        </mxCell>
        <mxCell id="zN3Sk1eQ0CRhaxmOy-_6-1" value="Phone_Number" style="ellipse;shape=doubleEllipse;margin=3;whiteSpace=wrap;html=1;align=center;" parent="1" vertex="1">
          <mxGeometry x="610" y="-320" width="100" height="40" as="geometry" />
        </mxCell>
        <mxCell id="zN3Sk1eQ0CRhaxmOy-_6-2" value="Email" style="ellipse;shape=doubleEllipse;margin=3;whiteSpace=wrap;html=1;align=center;" parent="1" vertex="1">
          <mxGeometry x="610" y="-371.77" width="100" height="40" as="geometry" />
        </mxCell>
        <mxCell id="zN3Sk1eQ0CRhaxmOy-_6-3" value="lName" style="ellipse;whiteSpace=wrap;html=1;align=center;" parent="1" vertex="1">
          <mxGeometry x="53.110000000000014" y="-363.54" width="100" height="40" as="geometry" />
        </mxCell>
        <mxCell id="zN3Sk1eQ0CRhaxmOy-_6-4" value="fName" style="ellipse;whiteSpace=wrap;html=1;align=center;" parent="1" vertex="1">
          <mxGeometry x="123.11" y="-421.77" width="100" height="40" as="geometry" />
        </mxCell>
        <mxCell id="zN3Sk1eQ0CRhaxmOy-_6-5" value="" style="endArrow=none;html=1;rounded=0;" parent="1" source="lmHFKcVa7eXzHL_CS6Wr-80" target="zN3Sk1eQ0CRhaxmOy-_6-4" edge="1">
          <mxGeometry width="50" height="50" relative="1" as="geometry">
            <mxPoint x="315" y="-298" as="sourcePoint" />
            <mxPoint x="262" y="-316" as="targetPoint" />
          </mxGeometry>
        </mxCell>
        <mxCell id="zN3Sk1eQ0CRhaxmOy-_6-6" value="" style="endArrow=none;html=1;rounded=0;" parent="1" source="lmHFKcVa7eXzHL_CS6Wr-80" target="zN3Sk1eQ0CRhaxmOy-_6-3" edge="1">
          <mxGeometry width="50" height="50" relative="1" as="geometry">
            <mxPoint x="325" y="-288" as="sourcePoint" />
            <mxPoint x="272" y="-306" as="targetPoint" />
          </mxGeometry>
        </mxCell>
        <mxCell id="zN3Sk1eQ0CRhaxmOy-_6-8" value="" style="endArrow=none;html=1;rounded=0;" parent="1" source="ZwX8URytsc3kb5zPjPif-42" target="lmHFKcVa7eXzHL_CS6Wr-6" edge="1">
          <mxGeometry width="50" height="50" relative="1" as="geometry">
            <mxPoint x="75" y="-283" as="sourcePoint" />
            <mxPoint x="170.0019196314788" y="-284.76003071410355" as="targetPoint" />
          </mxGeometry>
        </mxCell>
        <mxCell id="zN3Sk1eQ0CRhaxmOy-_6-10" value="OrderItems" style="shape=rhombus;perimeter=rhombusPerimeter;whiteSpace=wrap;html=1;align=center;" parent="1" vertex="1">
          <mxGeometry x="-100" y="105" width="120" height="60" as="geometry" />
        </mxCell>
        <mxCell id="zN3Sk1eQ0CRhaxmOy-_6-13" value="N" style="endArrow=none;html=1;rounded=0;" parent="1" source="zN3Sk1eQ0CRhaxmOy-_6-19" target="zN3Sk1eQ0CRhaxmOy-_6-10" edge="1">
          <mxGeometry x="0.3333" y="20" relative="1" as="geometry">
            <mxPoint x="-120" y="10" as="sourcePoint" />
            <mxPoint x="190" as="targetPoint" />
            <mxPoint as="offset" />
          </mxGeometry>
        </mxCell>
        <mxCell id="zN3Sk1eQ0CRhaxmOy-_6-14" value="N" style="endArrow=none;html=1;rounded=0;" parent="1" source="zN3Sk1eQ0CRhaxmOy-_6-10" target="lmHFKcVa7eXzHL_CS6Wr-1" edge="1">
          <mxGeometry x="-0.4334" y="13" relative="1" as="geometry">
            <mxPoint x="-200" y="70" as="sourcePoint" />
            <mxPoint x="-110" y="70" as="targetPoint" />
            <Array as="points" />
            <mxPoint as="offset" />
          </mxGeometry>
        </mxCell>
        <mxCell id="zN3Sk1eQ0CRhaxmOy-_6-16" value="1" style="endArrow=none;html=1;rounded=0;" parent="1" source="zN3Sk1eQ0CRhaxmOy-_6-20" target="lmHFKcVa7eXzHL_CS6Wr-6" edge="1">
          <mxGeometry x="-0.9356" y="17" relative="1" as="geometry">
            <mxPoint x="110" y="-180" as="sourcePoint" />
            <mxPoint x="-120" y="-118.53999999999996" as="targetPoint" />
            <mxPoint as="offset" />
          </mxGeometry>
        </mxCell>
        <mxCell id="zN3Sk1eQ0CRhaxmOy-_6-19" value="Orders" style="whiteSpace=wrap;html=1;align=center;" parent="1" vertex="1">
          <mxGeometry x="-90" y="-40" width="100" height="40" as="geometry" />
        </mxCell>
        <mxCell id="zN3Sk1eQ0CRhaxmOy-_6-20" value="Places" style="shape=rhombus;perimeter=rhombusPerimeter;whiteSpace=wrap;html=1;align=center;" parent="1" vertex="1">
          <mxGeometry x="-100.00000000000001" y="-178.54" width="120" height="60" as="geometry" />
        </mxCell>
        <mxCell id="zN3Sk1eQ0CRhaxmOy-_6-21" value="N" style="endArrow=none;html=1;rounded=0;" parent="1" source="zN3Sk1eQ0CRhaxmOy-_6-19" target="zN3Sk1eQ0CRhaxmOy-_6-20" edge="1">
          <mxGeometry x="0.5279" y="-20" relative="1" as="geometry">
            <mxPoint x="52" y="-152" as="sourcePoint" />
            <mxPoint x="315" y="-255" as="targetPoint" />
            <mxPoint as="offset" />
          </mxGeometry>
        </mxCell>
        <mxCell id="zN3Sk1eQ0CRhaxmOy-_6-22" value="Date" style="ellipse;whiteSpace=wrap;html=1;" parent="1" vertex="1">
          <mxGeometry x="-210" y="-70" width="98.38" height="50" as="geometry" />
        </mxCell>
        <mxCell id="zN3Sk1eQ0CRhaxmOy-_6-23" value="" style="endArrow=none;html=1;rounded=0;" parent="1" source="zN3Sk1eQ0CRhaxmOy-_6-22" target="zN3Sk1eQ0CRhaxmOy-_6-19" edge="1">
          <mxGeometry relative="1" as="geometry">
            <mxPoint x="29" y="144" as="sourcePoint" />
            <mxPoint x="317" y="141" as="targetPoint" />
            <Array as="points" />
          </mxGeometry>
        </mxCell>
        <mxCell id="zN3Sk1eQ0CRhaxmOy-_6-24" value="Date" style="ellipse;whiteSpace=wrap;html=1;align=center;" parent="1" vertex="1">
          <mxGeometry x="709.9999999999999" y="-105" width="100" height="40" as="geometry" />
        </mxCell>
        <mxCell id="zN3Sk1eQ0CRhaxmOy-_6-25" value="" style="endArrow=none;html=1;rounded=0;" parent="1" source="ZwX8URytsc3kb5zPjPif-32" target="zN3Sk1eQ0CRhaxmOy-_6-24" edge="1">
          <mxGeometry relative="1" as="geometry">
            <mxPoint x="663" y="-69" as="sourcePoint" />
            <mxPoint x="721" y="-36" as="targetPoint" />
          </mxGeometry>
        </mxCell>
        <mxCell id="zN3Sk1eQ0CRhaxmOy-_6-27" value="N" style="endArrow=none;html=1;rounded=0;" parent="1" source="zN3Sk1eQ0CRhaxmOy-_6-10" target="lmHFKcVa7eXzHL_CS6Wr-5" edge="1">
          <mxGeometry x="-0.7264" y="17" relative="1" as="geometry">
            <mxPoint x="110" y="190" as="sourcePoint" />
            <mxPoint x="270" y="190" as="targetPoint" />
            <mxPoint as="offset" />
          </mxGeometry>
        </mxCell>
        <mxCell id="zN3Sk1eQ0CRhaxmOy-_6-28" value="UnitPrice" style="ellipse;whiteSpace=wrap;html=1;" parent="1" vertex="1">
          <mxGeometry x="-198.38" y="155" width="98.38" height="50" as="geometry" />
        </mxCell>
        <mxCell id="zN3Sk1eQ0CRhaxmOy-_6-29" value="Quantity" style="ellipse;whiteSpace=wrap;html=1;" parent="1" vertex="1">
          <mxGeometry x="-198.38" y="70" width="98.38" height="50" as="geometry" />
        </mxCell>
        <mxCell id="zN3Sk1eQ0CRhaxmOy-_6-30" value="" style="endArrow=none;html=1;rounded=0;" parent="1" source="zN3Sk1eQ0CRhaxmOy-_6-28" target="zN3Sk1eQ0CRhaxmOy-_6-10" edge="1">
          <mxGeometry relative="1" as="geometry">
            <mxPoint x="-105" y="-26" as="sourcePoint" />
            <mxPoint x="-80" y="-20" as="targetPoint" />
            <Array as="points" />
          </mxGeometry>
        </mxCell>
        <mxCell id="zN3Sk1eQ0CRhaxmOy-_6-31" value="" style="endArrow=none;html=1;rounded=0;" parent="1" source="zN3Sk1eQ0CRhaxmOy-_6-29" target="zN3Sk1eQ0CRhaxmOy-_6-10" edge="1">
          <mxGeometry relative="1" as="geometry">
            <mxPoint x="-95" y="-16" as="sourcePoint" />
            <mxPoint x="-70" y="-10" as="targetPoint" />
            <Array as="points" />
          </mxGeometry>
        </mxCell>
      </root>
    </mxGraphModel>
  </diagram>
</mxfile>
